<?xml version="1.0" standalone="no"?>
<!DOCTYPE svg PUBLIC "-//W3C//DTD SVG 20010904//EN"
 "http://www.w3.org/TR/2001/REC-SVG-20010904/DTD/svg10.dtd">
<svg version="1.0" xmlns="http://www.w3.org/2000/svg"
 width="1920.000000pt" height="1080.000000pt" viewBox="0 0 1920.000000 1080.000000"
 preserveAspectRatio="xMidYMid meet">

<g transform="translate(0.000000,1080.000000) scale(0.100000,-0.100000)"
fill="#000000" stroke="none">
<path d="M8290 6931 c0 -5 23 -14 51 -20 102 -22 138 -70 166 -223 16 -85 18
-179 18 -1063 0 -880 -2 -977 -17 -1043 -31 -133 -82 -194 -174 -208 -28 -4
-44 -11 -44 -20 0 -12 58 -14 350 -14 290 0 350 2 350 14 0 8 -15 16 -38 20
-44 7 -96 39 -125 77 -10 15 -28 57 -40 95 -20 66 -21 94 -25 609 -3 596 -3
597 59 649 79 67 169 54 381 -53 199 -102 283 -126 433 -125 101 0 127 3 167
21 94 43 154 122 172 226 10 52 -17 50 -33 -2 -30 -103 -156 -136 -341 -88
l-85 22 2 175 c3 303 48 431 161 455 12 3 33 7 47 10 14 3 25 10 25 15 0 6
-128 10 -350 10 -234 0 -350 -3 -350 -10 0 -12 10 -16 63 -25 86 -14 136 -98
156 -260 12 -102 15 -285 4 -285 -5 0 -42 7 -83 16 -154 33 -306 0 -392 -84
l-38 -36 0 404 c0 402 4 471 36 579 18 63 73 126 120 136 16 3 39 8 52 11 12
2 22 9 22 14 0 6 -128 10 -350 10 -206 0 -350 -4 -350 -9z"/>
<path d="M9810 6930 c0 -5 17 -12 38 -15 124 -21 165 -81 193 -285 8 -60 12
-352 12 -990 0 -920 -3 -1000 -39 -1120 -26 -87 -99 -150 -175 -150 -20 0 -29
-4 -27 -12 4 -10 86 -14 356 -16 309 -2 352 0 352 13 0 10 -10 15 -28 15 -42
0 -114 41 -140 79 -68 104 -74 212 -69 1291 3 809 5 902 21 970 31 130 73 182
163 200 29 6 53 16 53 21 0 5 -143 9 -355 9 -219 0 -355 -4 -355 -10z"/>
<path d="M9280 4936 c0 -662 -6 -804 -37 -895 -28 -82 -75 -124 -149 -136
-139 -20 20 -25 886 -25 l930 0 0 210 c0 180 -2 210 -15 210 -9 0 -15 -9 -15
-22 0 -69 -90 -182 -181 -228 -196 -100 -424 -139 -876 -147 l-313 -6 0 812
c0 641 -3 812 -12 815 -7 3 -49 16 -93 31 -44 14 -90 28 -102 32 l-23 5 0
-656z"/>
</g>
</svg>
